<?xml version="1.0" encoding="UTF-8"?><svg id="Layer_2" xmlns="http://www.w3.org/2000/svg" viewBox="0 0 478.87 584.07"><defs><style>.cls-1{fill:#191919;stroke-width:0px;}</style></defs><g id="Layer_1-2"><path class="cls-1" d="M473.71,152.06c5.61-.45,7.11-6.62,2.17-8.76l-107.13-45.59-115.7-49.28L140.4.5c-1.89-.79-4.2-.64-5.95.42-45.56,27.72-63.95,62.35-63.55,99.1-.02,2,.08,4.09.24,6.32,0,.14.01.28.02.42,2.61,33.48,23.73,90.66,44.82,131.59.93,1.82,1.19,3.76.61,5.7-8.99,31.1-31.96,66.41-58.77,85.98-2.99,2.19-2.41,6.07,1.04,7.58l101.97,43.41c3.73,1.59,4.05,5.95.55,7.98-38.8,22-107.72,39.02-156.22,42.95-5.61.45-7.11,6.62-2.17,8.76l107.13,45.59,115.7,49.28,112.65,47.98c1.89.79,4.19.64,5.94-.42,45.56-27.72,63.95-62.35,63.55-99.1.02-2-.08-4.09-.24-6.27,0-.14-.01-.28-.02-.42-2.61-33.48-23.73-90.66-44.82-131.6-.93-1.82-1.19-3.76-.61-5.7,8.99-31.1,31.96-66.41,58.77-85.98,2.99-2.19,2.41-6.07-1.04-7.58l-101.97-43.41c-3.73-1.59-4.05-5.95-.55-7.98,38.8-22,107.72-39.02,156.22-42.95v-.09ZM226.97,55.17c5.37-.67,8.5,4.81,4.49,7.93-28.69,22.64-41.92,48.68-44.46,76.83-.29,3.32-4.64,5.34-8.2,3.84l-92.03-39.19c-3.73-1.59-4.05-5.95-.55-7.98,34.91-19.77,93.98-35.57,140.7-41.42h.06ZM130.77,241.51c7.73-26.85,25.88-56.81,47.99-77.13,3.18-2.9,8.99-1.5,9.68,2.33,6.24,34.06,24.54,83.97,43.29,120.82.93,1.82,1.14,3.76.61,5.7-7.73,26.85-25.89,56.81-47.99,77.13-3.18,2.9-8.99,1.5-9.68-2.33-6.24-34.05-24.54-83.96-43.29-120.77-.93-1.82-1.14-3.76-.61-5.7v-.05ZM184.26,390.99l92.26,39.27c3.73,1.59,4.05,5.95.55,7.98-34.91,19.82-94.16,35.53-140.99,41.34-5.37.67-8.5-4.81-4.49-7.93,28.75-22.64,41.97-48.68,44.51-76.87.29-3.32,4.64-5.34,8.2-3.84l-.06.05ZM251.84,528.85c-5.37.67-8.5-4.81-4.49-7.93,28.7-22.64,41.92-48.68,44.46-76.83.29-3.32,4.64-5.34,8.2-3.84l92.03,39.19c3.73,1.59,4.05,5.95.55,7.98-34.91,19.77-93.98,35.57-140.7,41.42h-.06ZM348.04,342.46c-7.73,26.85-25.89,56.81-47.99,77.13-3.18,2.9-8.99,1.5-9.68-2.33-6.24-34.05-24.54-83.97-43.29-120.78-.93-1.82-1.14-3.76-.61-5.7,7.73-26.85,25.89-56.81,47.99-77.13,3.18-2.9,8.99-1.5,9.68,2.33,6.24,34.05,24.54,83.96,43.29,120.82.93,1.82,1.14,3.76.61,5.7v-.05ZM294.55,193.03l-92.26-39.27c-3.73-1.59-4.05-5.95-.55-7.98,34.91-19.82,94.15-35.53,140.98-41.35,5.37-.67,8.5,4.81,4.49,7.93-28.75,22.64-41.98,48.69-44.52,76.87-.29,3.32-4.64,5.34-8.2,3.84l.05-.05Z"/></g></svg>